<svg xmlns="http://www.w3.org/2000/svg" viewBox="0 0 300 200" width="300" height="200">
  <g transform="translate(115, 20) scale(1.5)">
    <path d="M 40 0 A 40 40 0 0 0 0 40 L 5 40 A 35 35 0 0 1 40 5 L 40 0 Z M 0 40 A 40 40 0 0 0 40 80 L 40 75 A 35 35 0 0 1 5 40 L 0 40 Z" fill="#0c1c44" opacity="0.8"/>
    <path d="M 36.5 3.5 A 36.5 36.5 0 0 0 3.5 36.5 L 8.5 36.5 A 31.5 31.5 0 0 1 36.5 8.5 L 36.5 3.5 Z" fill="url(#grad_gear_left)"/>
    <path d="M 40 0 L 35 0 L 35 -5 L 40 -5 L 40 0 Z M 40 80 L 35 80 L 35 85 L 40 85 L 40 80 Z M 0 40 L 0 35 L -5 35 L -5 40 L 0 40 Z" fill="#0c1c44" opacity="0.6"/>


    <path d="M 40 0 C 62.09 0 80 17.91 80 40 C 80 62.09 62.09 80 40 80 L 40 75 C 59.33 75 75 59.33 75 40 C 75 20.67 59.33 5 40 5 L 40 0 Z" fill="url(#grad_brain_right)"/>
    <circle cx="60" cy="20" r="4" fill="#fff" stroke="#2e8b57" stroke-width="2"/>
    <circle cx="70" cy="40" r="5" fill="#fff" stroke="#2e8b57" stroke-width="2"/>
    <circle cx="55" cy="65" r="3" fill="#fff" stroke="#2e8b57" stroke-width="2"/>
    <path d="M 60 24 L 65 35 L 58 62" stroke="#fff" stroke-width="2" fill="none" stroke-linecap="round"/>
    <path d="M 70 45 L 75 55" stroke="#fff" stroke-width="1.5" fill="none"/>


    <text x="40" y="52" font-family="Arial, sans-serif" font-weight="900" font-size="36" text-anchor="middle" fill="url(#grad_ic_text)">IC</text>
  </g>

  <g transform="translate(150, 160)">
    <text x="0" y="0" font-family="Arial, sans-serif" font-weight="700" font-size="32" text-anchor="middle" fill="#0c1c44">InvenCore</text>
    <text x="0" y="25" font-family="Arial, sans-serif" font-weight="400" font-size="14" text-anchor="middle" fill="#0c1c44" letter-spacing="1">Innovate the Core</text>
  </g>

  <defs>
    <linearGradient id="grad_gear_left" x1="0%" y1="0%" x2="100%" y2="100%">
      <stop offset="0%" style="stop-color:#1a237e;stop-opacity:1" />
      <stop offset="100%" style="stop-color:#4a148c;stop-opacity:1" />
    </linearGradient>
    <linearGradient id="grad_brain_right" x1="0%" y1="0%" x2="100%" y2="100%">
      <stop offset="0%" style="stop-color:#00897b;stop-opacity:1" />
      <stop offset="100%" style="stop-color:#43a047;stop-opacity:1" />
    </linearGradient>
    <linearGradient id="grad_ic_text" x1="0%" y1="0%" x2="100%" y2="0%">
      <stop offset="0%" style="stop-color:#1a237e;stop-opacity:1" />
      <stop offset="100%" style="stop-color:#00897b;stop-opacity:1" />
    </linearGradient>
  </defs>
</svg>